<svg xmlns="http://www.w3.org/2000/svg" data-name="BVG Herz" viewBox="0 0 310.668 284.463"><path fill="#fff" d="M155.333 284.463c-7.904 0-13.888-4.824-16.752-7.699-19.606-19.853-77.31-78.313-108.937-110.472C7.77 144.04-1.833 118.675.287 88.744c1.693-23.89 11.907-46.109 28.76-62.564C46.337 9.297 69.167 0 93.335 0c27.809 0 45.912 13.927 61.999 29.845C171.419 13.928 189.524 0 217.33 0c24.168 0 47 9.297 64.29 26.18 16.853 16.455 27.067 38.674 28.76 62.563 2.12 29.934-7.484 55.3-29.357 77.547-29.878 30.382-84.295 85.521-108.895 110.433-2.912 2.92-8.898 7.74-16.796 7.74Z"/><path fill="#f0d722" d="M155.333 49.32c18.194-18.95 34.232-35.714 61.998-35.714 43.096 0 76.503 34.123 79.478 76.099 1.852 26.169-6.244 47.474-25.488 67.046-31.97 32.509-89.44 90.732-108.873 110.41-.866.868-3.935 3.695-7.115 3.695-3.178 0-6.248-2.827-7.112-3.694-19.433-19.679-76.905-77.902-108.876-110.411-19.241-19.572-27.339-40.877-25.485-67.046 2.974-41.976 36.381-76.098 79.475-76.098 27.767 0 43.806 16.762 61.998 35.714"/><path fill="#252525" d="M108.718 155.426H97.015c-2.925 0-5.12-.977-5.12-4.388V95.446c0-2.683 2.195-4.876 5.12-4.876h12.678c15.361 0 17.557 7.802 17.557 16.335 0 6.827-2.196 12.922-10.73 14.627 9.266.492 12.438 7.804 12.438 14.389 0 10.24-3.66 19.505-20.24 19.505m-.973-56.078h-3.66v18.286h2.924c8.294 0 8.537-5.12 8.537-9.266 0-6.582-.976-9.02-7.8-9.02m-.246 26.818h-3.413v20.483h4.386c7.074 0 7.803-4.876 7.803-10.241 0-5.852-.729-10.242-8.776-10.242m56.81 21.945c-1.22 5.365-4.145 8.044-9.023 8.044-5.604 0-8.043-2.68-9.263-7.556l-11.947-49.494c-1.218-4.877.975-9.022 5.607-9.022 2.926 0 5.487 1.463 6.34 5.606l7.802 36.574c.732 3.413 1.222 7.558 1.46 10.24.249-2.682.856-6.827 1.466-10.24l7.07-36.574c.73-3.655 2.926-5.606 6.096-5.606 3.9 0 6.705 3.17 5.61 8.289zm39.743 8.044c-19.26 0-23.65-10.725-23.65-32.913 0-23.407 9.753-33.404 24.868-33.404 3.172 0 10.487.732 14.14 3.658.734.732 1.708 1.95 1.708 3.9 0 2.925-2.438 5.122-5.12 5.122s-5.362-1.952-10.97-1.952c-7.314 0-12.193 4.39-12.193 23.651 0 18.043 4.148 22.188 12.68 22.188 2.195 0 3.414-.244 4.146-.487v-18.775h-3.658c-3.17 0-5.122-1.707-5.122-4.634 0-3.169 1.708-4.875 5.122-4.875h10.727c3.66 0 4.876 1.706 4.876 5.608v19.26c0 9.512-5.607 13.653-17.554 13.653"/></svg>