<svg width="128" height="119" viewBox="0 0 128 119" fill="none" xmlns="http://www.w3.org/2000/svg">
<path d="M99.5181 4.07535H28.1115C26.6794 4.07535 25.5185 7.06227 25.5185 10.7468V108.253C25.5185 111.938 26.6794 114.925 28.1115 114.925H99.5181C100.95 114.925 102.111 111.938 102.111 108.253V10.7468C102.111 7.06227 100.95 4.07535 99.5181 4.07535Z" fill="#F0D722" stroke="white" stroke-width="7" stroke-linejoin="round"/>
<path d="M113.058 22.1855C113.834 22.2786 114.223 22.6971 114.223 23.4404L113.058 33.0596C112.964 33.8341 112.56 34.2525 111.846 34.3145L96.8438 34.7324L94.8398 52.0195L109.19 51.5088C109.998 51.5397 110.401 51.9423 110.401 52.7168L109.19 62.1963C109.065 62.9087 108.662 63.2963 107.979 63.3584L93.4893 63.916L91.2988 82.9688L101.221 82.6318L101.223 82.6094L116.723 82.1094V77.6094L127.223 87.6094L116.723 98.6094V94.1094L108.051 94.3721C108.012 94.3819 107.973 94.392 107.933 94.4004L79.2783 95.3291C78.5945 95.3291 78.252 95.0349 78.252 94.4463L86.3135 24.1377C86.4377 23.4872 86.8415 23.1303 87.5254 23.0684L113.058 22.1855ZM61.2178 22C66.436 22 70.38 23.5646 73.0518 26.6934C75.7544 29.8224 77.1055 33.6796 77.1055 38.2646C77.1055 42.8187 76.8101 48.3488 76.2197 54.8545C75.6303 61.3289 74.8999 66.7502 74.0303 71.1182C73.1606 75.455 72.4152 78.6309 71.7939 80.6445C71.2045 82.6272 70.3798 84.6417 69.3242 86.6865C68.2677 88.7309 67.041 90.3732 65.6436 91.6123C62.5067 94.4311 58.3133 95.8408 53.0645 95.8408C47.8461 95.8408 43.9003 94.2914 41.2285 91.1934C38.5579 88.0954 37.2227 84.223 37.2227 79.5762C37.2227 67.7418 38.4181 56.0468 40.8096 44.4912C42.705 35.4144 45.3291 29.3425 48.6836 26.2754C51.8524 23.4253 56.0302 22 61.2178 22ZM38.9053 22C39.6507 22.0619 40.0234 22.4804 40.0234 23.2549L16.8672 82.8291L32.0088 82.3184C32.7542 82.3803 33.1269 82.767 33.127 83.4795L32.0088 93.1455C31.8845 93.8579 31.4807 94.2448 30.7969 94.3066L1.02441 95.3291C0.341806 95.329 0 95.0347 0 94.4463L23.3428 34.5L9.36523 34.9648C8.58895 34.9338 8.2002 34.593 8.2002 33.9424L9.36523 24.1377C9.45867 23.4872 9.86248 23.1303 10.5771 23.0684L38.9053 22ZM59.7734 32.9668C56.1693 32.9669 53.7313 36.6074 52.458 43.8877C51.7125 48.1629 50.9671 53.9715 50.2217 61.3135C49.4762 68.6247 49.1035 73.783 49.1035 76.7881C49.1035 79.7929 49.5858 81.8991 50.5479 83.1074C51.5417 84.2845 52.7837 84.8739 54.2744 84.874C58.2195 84.874 60.7519 81.2492 61.8701 74C62.6156 69.1981 63.361 63.2189 64.1064 56.0625C64.8519 48.9064 65.2246 43.872 65.2246 40.96C65.2246 38.0478 64.7434 35.9875 63.7803 34.7793C62.8479 33.571 61.5129 32.9668 59.7734 32.9668Z" fill="black"/>
</svg>
