<svg width="330" height="119" viewBox="0 0 330 119" fill="none" xmlns="http://www.w3.org/2000/svg">
<path d="M124.518 4.07535H53.1115C51.6794 4.07535 50.5185 7.06227 50.5185 10.7468V108.253C50.5185 111.938 51.6794 114.925 53.1115 114.925H124.518C125.95 114.925 127.111 111.938 127.111 108.253V10.7468C127.111 7.06227 125.95 4.07535 124.518 4.07535Z" fill="#F0D722" stroke="white" stroke-width="7" stroke-linejoin="round"/>
<path d="M25.9873 21.622L32.302 21.3838C32.4681 21.3976 32.5512 21.4908 32.5512 21.6635L27.3894 34.9433L30.7648 34.8293C30.931 34.8431 31.0141 34.9294 31.0141 35.0882L30.7648 37.2428C30.7371 37.4017 30.6471 37.488 30.4948 37.5019L23.8581 37.7297C23.7058 37.7297 23.6296 37.6641 23.6296 37.5329L28.833 24.1703L25.7172 24.2738C25.5441 24.2669 25.4576 24.191 25.4576 24.046L25.7172 21.8603C25.738 21.7153 25.828 21.6358 25.9873 21.622ZM34.026 35.7512C33.8667 35.3369 33.756 34.9294 33.6936 34.5289C33.6383 34.1215 33.6106 33.5655 33.6106 32.8612C33.6106 32.1567 33.6867 31.2867 33.8391 30.2507C34.3445 26.7979 35.9163 25.0715 38.5543 25.0715C39.5721 25.0715 40.351 25.4202 40.8912 26.1177C41.4312 26.8152 41.7013 27.7198 41.7013 28.8316C41.7013 29.9435 41.632 31.0242 41.4935 32.0739C41.4728 32.2604 41.3655 32.357 41.1716 32.364L36.0409 32.5401C36.034 32.6436 36.0305 32.7818 36.0305 32.9544C36.0305 33.7348 36.1655 34.3528 36.4355 34.8085C36.7125 35.2644 37.128 35.4922 37.6819 35.4922C38.2358 35.4922 38.7482 35.4128 39.219 35.254C39.6968 35.0882 39.9772 35.0054 40.0603 35.0054C40.1434 35.0054 40.216 35.033 40.2784 35.0882C40.3407 35.1435 40.3719 35.2194 40.3719 35.3162L40.1641 37.1393C40.1572 37.2428 40.1364 37.3119 40.1018 37.3465C40.0741 37.374 40.0152 37.4051 39.9252 37.4397C39.0874 37.6814 38.2808 37.8022 37.5053 37.8022C36.7298 37.8022 36.1275 37.709 35.6981 37.5225C35.2689 37.3361 34.9227 37.0979 34.6596 36.8078C34.4033 36.5109 34.1922 36.1586 34.026 35.7512ZM36.2902 29.94L36.1967 30.603L38.9074 30.4683C39.0252 30.4614 39.1013 30.4407 39.1359 30.4061C39.2398 30.3026 39.2917 30.0194 39.2917 29.5568C39.2917 29.0871 39.2744 28.7591 39.2398 28.5727C39.2121 28.3793 39.1602 28.1825 39.084 27.9823C38.9247 27.5403 38.6513 27.3193 38.2635 27.3193C37.8827 27.3193 37.5815 27.3849 37.3599 27.5161C36.8683 27.82 36.5117 28.6279 36.2902 29.94ZM47.642 25.434L47.5278 26.387C48.5248 25.51 49.4803 25.0715 50.3943 25.0715C51.5575 25.0715 52.2915 25.7068 52.5961 26.9775C52.6792 27.3227 52.7208 27.6508 52.7208 27.9615C52.7208 28.2654 52.7104 28.5105 52.6897 28.697L51.6926 37.3775C51.6649 37.5502 51.5784 37.6434 51.4329 37.6572L49.335 37.7297C49.1826 37.7159 49.1065 37.6503 49.1065 37.5329L50.0516 29.3288C50.0723 29.1493 50.0828 28.987 50.0828 28.842C50.0828 28.2757 49.9478 27.8925 49.6777 27.6922C49.4146 27.485 49.0788 27.3814 48.6703 27.3814C48.2617 27.3814 47.8359 27.4677 47.3928 27.6404L46.2815 37.3775C46.2538 37.5502 46.1672 37.6434 46.0218 37.6572L43.9238 37.7297C43.7715 37.7159 43.6954 37.6503 43.6954 37.5329L45.0663 25.4858C45.094 25.3339 45.1806 25.251 45.326 25.2372L47.3616 25.1647C47.5486 25.1716 47.642 25.2614 47.642 25.434ZM56.4286 25.2061C56.5878 23.6869 56.6917 22.9031 56.7402 22.8547C56.7886 22.7995 56.8613 22.7684 56.9583 22.7615L58.942 22.689C59.1289 22.7028 59.2224 22.7891 59.2224 22.9479C59.0909 23.7145 58.9801 24.4499 58.8901 25.1544L61.31 25.0715C61.4762 25.0784 61.5593 25.1682 61.5593 25.3408L61.2685 26.9878C61.2407 27.1536 61.1542 27.2399 61.0088 27.2468L58.6304 27.34C58.1596 31.5663 57.9242 33.897 57.9242 34.3321C57.9242 35.14 58.2704 35.544 58.9627 35.544C59.3159 35.544 59.6586 35.4888 59.991 35.3783C60.3233 35.2678 60.531 35.2125 60.6141 35.2125C60.7596 35.2125 60.8323 35.3023 60.8323 35.4819L60.6141 37.2946C60.6003 37.3982 60.5726 37.4742 60.531 37.5225C60.4964 37.5709 60.3268 37.6296 60.0221 37.6986C59.7244 37.7677 59.212 37.8022 58.485 37.8022C57.4187 37.8022 56.6294 37.5571 56.117 37.0668C55.6047 36.5695 55.3485 35.8306 55.3485 34.85C55.3485 33.8694 55.6219 31.3764 56.1689 27.3711L55.1511 27.4125C54.978 27.4056 54.8914 27.3193 54.8914 27.1536L55.1719 25.4858C55.1927 25.327 55.2827 25.2441 55.4419 25.2372L56.4286 25.2061ZM69.5253 27.8062L68.414 27.6922C67.5139 27.6922 66.7592 27.8717 66.1499 28.2309L65.1217 37.3671C65.094 37.5398 65.0074 37.6331 64.862 37.6468L62.764 37.7297C62.6117 37.7159 62.5355 37.6503 62.5355 37.5329L63.9065 25.4858C63.9342 25.3339 64.0207 25.251 64.1662 25.2372L66.1914 25.1647C66.3784 25.1716 66.4718 25.2614 66.4718 25.434L66.3472 26.501C66.7904 26.0521 67.2196 25.7034 67.6351 25.4547C68.0505 25.1992 68.4659 25.0715 68.8814 25.0715C69.3037 25.0715 69.6257 25.0887 69.8473 25.1233C69.9927 25.1509 70.0654 25.2476 70.0654 25.4133C70.0654 25.8898 69.9858 26.5976 69.8265 27.5368C69.7919 27.7163 69.6915 27.8062 69.5253 27.8062ZM79.9944 25.434L78.6442 37.3775C78.6235 37.5571 78.5335 37.6503 78.3742 37.6572L76.2762 37.7297C76.1308 37.7159 76.0581 37.6503 76.0581 37.5329L76.2555 36.1241C75.9369 36.6628 75.5873 37.0771 75.2065 37.3671C74.8325 37.6572 74.4102 37.8022 73.9394 37.8022C73.4686 37.8022 73.0669 37.7228 72.7346 37.564C72.4022 37.3982 72.1287 37.1842 71.9141 36.9218C71.7064 36.6524 71.5367 36.3313 71.4052 35.9584C71.1628 35.2954 71.0417 34.3908 71.0417 33.2444C71.0417 32.0912 71.1178 31.114 71.2702 30.3129C71.4294 29.5119 71.5679 28.9042 71.6856 28.4898C71.8033 28.0686 71.9591 27.6369 72.153 27.195C72.3538 26.753 72.5788 26.3835 72.8281 26.0866C73.3958 25.4099 74.1125 25.0715 74.978 25.0715C75.6219 25.0715 76.1135 25.2268 76.4528 25.5376C76.7921 25.8414 77.0759 26.2938 77.3044 26.8946L77.4291 25.4858C77.4429 25.3339 77.5294 25.251 77.6887 25.2372L79.7244 25.1647C79.9044 25.1785 79.9944 25.2683 79.9944 25.434ZM73.6589 32.9441C73.6589 34.5945 74.1021 35.4197 74.9883 35.4197C75.3761 35.4197 75.6911 35.2436 75.9335 34.8914C76.1758 34.5324 76.3836 33.8176 76.5566 32.7472C76.7366 31.6768 76.8266 30.8965 76.8266 30.4061C76.8266 29.9158 76.8232 29.6051 76.8163 29.4739C76.8094 29.3427 76.7955 29.17 76.7747 28.9559C76.754 28.735 76.7159 28.552 76.6605 28.4069C76.6051 28.255 76.5324 28.1031 76.4424 27.9512C76.2624 27.6542 75.9716 27.5057 75.57 27.5057C75.1684 27.5057 74.8499 27.6853 74.6144 28.0444C74.3791 28.3966 74.1955 28.8696 74.064 29.4636C73.794 30.7342 73.6589 31.8943 73.6589 32.9441ZM86.226 20.4412L84.315 37.3671C84.3011 37.4639 84.2769 37.5329 84.2423 37.5743C84.2076 37.6158 84.1419 37.64 84.0449 37.6468L81.9574 37.7297C81.805 37.7159 81.7288 37.6503 81.7288 37.5329L83.6503 20.5137C83.6641 20.417 83.6884 20.3479 83.7229 20.3065C83.7576 20.2651 83.8234 20.2409 83.9203 20.234L85.9559 20.1615C86.136 20.1822 86.226 20.2754 86.226 20.4412ZM88.0747 35.7512C87.9154 35.3369 87.8047 34.9294 87.7423 34.5289C87.687 34.1215 87.6592 33.5655 87.6592 32.8612C87.6592 32.1567 87.7354 31.2867 87.8878 30.2507C88.3932 26.7979 89.965 25.0715 92.6032 25.0715C93.6209 25.0715 94.3999 25.4202 94.9397 26.1177C95.4801 26.8152 95.7499 27.7198 95.7499 28.8316C95.7499 29.9435 95.6808 31.0242 95.5419 32.0739C95.5213 32.2604 95.4143 32.357 95.2202 32.364L90.0893 32.5401C90.0827 32.6436 90.0794 32.7818 90.0794 32.9544C90.0794 33.7348 90.2143 34.3528 90.4842 34.8085C90.7614 35.2644 91.1768 35.4922 91.7305 35.4922C92.2842 35.4922 92.7967 35.4128 93.2679 35.254C93.7452 35.0882 94.0257 35.0054 94.1088 35.0054C94.1919 35.0054 94.265 35.033 94.3268 35.0882C94.3893 35.1435 94.4205 35.2194 94.4205 35.3162L94.2125 37.1393C94.2058 37.2428 94.1852 37.3119 94.1507 37.3465C94.1228 37.374 94.0643 37.4051 93.9739 37.4397C93.1363 37.6814 92.3294 37.8022 91.5537 37.8022C90.7786 37.8022 90.1764 37.709 89.747 37.5225C89.3175 37.3361 88.9714 37.0979 88.7082 36.8078C88.452 36.5109 88.2409 36.1586 88.0747 35.7512ZM90.3386 29.94L90.2455 30.603L92.9562 30.4683C93.0739 30.4614 93.1503 30.4407 93.1849 30.4061C93.2886 30.3026 93.3404 30.0194 93.3404 29.5568C93.3404 29.0871 93.3231 28.7591 93.2885 28.5727C93.2606 28.3793 93.2088 28.1825 93.133 27.9823C92.9735 27.5403 92.6996 27.3193 92.3121 27.3193C91.9312 27.3193 91.6301 27.3849 91.4088 27.5161C90.9169 27.82 90.5606 28.6279 90.3386 29.94ZM41.265 64.3618C40.1018 64.3618 39.2224 64.0164 38.627 63.3259C38.0316 62.6353 37.7338 61.7721 37.7338 60.7362C37.7338 58.0983 38.0004 55.4913 38.5335 52.9155C38.9559 50.8921 39.541 49.5386 40.2888 48.8549C40.995 48.2195 41.9263 47.9019 43.0826 47.9019C44.2458 47.9019 45.1251 48.2506 45.7207 48.9481C46.323 49.6456 46.6243 50.5053 46.6243 51.5274C46.6243 52.5425 46.5584 53.7752 46.4269 55.2254C46.2954 56.6687 46.1326 57.8772 45.9387 58.851C45.7448 59.8178 45.5787 60.5256 45.4402 60.9745C45.3087 61.4165 45.1251 61.8654 44.8898 62.3211C44.6543 62.7769 44.3809 63.1429 44.0693 63.4191C43.3699 64.0475 42.4352 64.3618 41.265 64.3618ZM41.5351 61.9171C42.4144 61.9171 42.9788 61.1091 43.228 59.4932C43.3942 58.4228 43.5604 57.09 43.7265 55.4948C43.8927 53.8995 43.9758 52.7773 43.9758 52.1282C43.9758 51.4791 43.8685 51.0199 43.6538 50.7505C43.4461 50.4812 43.1484 50.3466 42.7606 50.3466C41.9574 50.3466 41.4139 51.158 41.13 52.7808C40.9638 53.7338 40.7977 55.0286 40.6315 56.6653C40.4653 58.295 40.3822 59.4449 40.3822 60.1147C40.3822 60.7846 40.4896 61.2542 40.7042 61.5235C40.9258 61.7859 41.2027 61.9171 41.5351 61.9171ZM55.2758 54.3243L54.1644 54.2103C53.2643 54.2103 52.5096 54.3898 51.9003 54.749L50.8721 63.8853C50.8444 64.0579 50.7578 64.1512 50.6125 64.165L48.5145 64.2478C48.3621 64.234 48.286 64.1684 48.286 64.051L49.6569 52.0039C49.6846 51.852 49.7712 51.7691 49.9166 51.7553L51.9419 51.6828C52.1288 51.6897 52.2222 51.7795 52.2222 51.9521L52.0976 53.0191C52.5408 52.5702 52.97 52.2215 53.3855 51.9729C53.8009 51.7174 54.2164 51.5896 54.6318 51.5896C55.0542 51.5896 55.3761 51.6068 55.5977 51.6414C55.7431 51.669 55.8158 51.7657 55.8158 51.9314C55.8158 52.4079 55.7362 53.1157 55.5769 54.0549C55.5423 54.2345 55.4419 54.3243 55.2758 54.3243ZM59.3159 50.5537C58.8866 50.5537 58.5438 50.419 58.2877 50.1497C58.0315 49.8804 57.9034 49.5351 57.9034 49.1139C57.9034 48.6857 58.073 48.3059 58.4123 47.9744C58.7585 47.636 59.1463 47.4668 59.5755 47.4668C60.0049 47.4668 60.351 47.6015 60.6141 47.8708C60.8842 48.1401 61.0192 48.4889 61.0192 48.917C61.0192 49.3383 60.8427 49.7181 60.4895 50.0565C60.1364 50.3879 59.7452 50.5537 59.3159 50.5537ZM60.4688 51.9521L59.1185 63.8956C59.1047 63.9923 59.0805 64.0613 59.0458 64.1028C59.0113 64.1442 58.9455 64.1684 58.8485 64.1753L56.761 64.2478C56.6086 64.234 56.5325 64.1684 56.5325 64.051L57.9034 52.0039C57.9311 51.852 58.0177 51.7691 58.163 51.7553L60.1883 51.6828C60.3752 51.6966 60.4688 51.7864 60.4688 51.9521ZM62.8783 62.2693C62.719 61.855 62.6082 61.4475 62.546 61.047C62.4905 60.6396 62.4629 60.0836 62.4629 59.3793C62.4629 58.6748 62.539 57.8048 62.6913 56.7689C63.1968 53.316 64.7685 51.5896 67.4066 51.5896C68.4244 51.5896 69.2034 51.9383 69.7434 52.6358C70.2835 53.3333 70.5536 54.2379 70.5536 55.3497C70.5536 56.4616 70.4843 57.5423 70.3458 58.592C70.325 58.7785 70.2177 58.8751 70.0239 58.8821L64.8932 59.0582C64.8862 59.1617 64.8828 59.2999 64.8828 59.4725C64.8828 60.2529 65.0178 60.8709 65.2879 61.3266C65.5648 61.7825 65.9802 62.0104 66.5342 62.0104C67.0881 62.0104 67.6004 61.9309 68.0713 61.7721C68.549 61.6064 68.8295 61.5235 68.9126 61.5235C68.9956 61.5235 69.0684 61.5511 69.1306 61.6064C69.193 61.6616 69.2242 61.7375 69.2242 61.8343L69.0164 63.6574C69.0095 63.7609 68.9887 63.83 68.9541 63.8646C68.9264 63.8921 68.8675 63.9232 68.7775 63.9578C67.9398 64.1995 67.1331 64.3203 66.3576 64.3203C65.5821 64.3203 64.9797 64.2271 64.5504 64.0406C64.1212 63.8542 63.7749 63.616 63.5118 63.3259C63.2557 63.029 63.0445 62.6768 62.8783 62.2693ZM65.1424 56.4581L65.049 57.1211L67.7597 56.9864C67.8774 56.9795 67.9536 56.9588 67.9882 56.9242C68.092 56.8207 68.144 56.5375 68.144 56.0749C68.144 55.6052 68.1267 55.2772 68.092 55.0908C68.0644 54.8974 68.0124 54.7006 67.9362 54.5004C67.777 54.0584 67.5035 53.8374 67.1158 53.8374C66.735 53.8374 66.4337 53.903 66.2122 54.0342C65.7206 54.3381 65.364 55.146 65.1424 56.4581ZM76.4943 51.9521L76.3801 52.9051C77.3771 52.0281 78.3327 51.5896 79.2466 51.5896C80.4099 51.5896 81.1438 52.2249 81.4485 53.4956C81.5315 53.8409 81.5731 54.1689 81.5731 54.4796C81.5731 54.7835 81.5627 55.0286 81.5419 55.2151L80.5449 63.8956C80.5171 64.0683 80.4306 64.1615 80.2852 64.1753L78.1872 64.2478C78.0349 64.234 77.9588 64.1684 77.9588 64.051L78.9038 55.8469C78.9246 55.6674 78.935 55.5051 78.935 55.3601C78.935 54.7939 78.8 54.4106 78.53 54.2103C78.2669 54.0031 77.931 53.8995 77.5225 53.8995C77.114 53.8995 76.6882 53.9858 76.245 54.1585L75.1338 63.8956C75.1061 64.0683 75.0195 64.1615 74.8741 64.1753L72.7761 64.2478C72.6238 64.234 72.5477 64.1684 72.5477 64.051L73.9186 52.0039C73.9463 51.852 74.0328 51.7691 74.1783 51.7553L76.2139 51.6828C76.4008 51.6897 76.4943 51.7795 76.4943 51.9521ZM85.2809 51.7242C85.4401 50.205 85.544 49.4211 85.5925 49.3728C85.6409 49.3176 85.7136 49.2865 85.8106 49.2796L87.7942 49.2071C87.9812 49.2209 88.0747 49.3072 88.0747 49.466C87.9431 50.2326 87.8323 50.968 87.7423 51.6725L90.1625 51.5896C90.3286 51.5965 90.4117 51.6863 90.4117 51.8589L90.1206 53.5059C90.0933 53.6717 90.0062 53.758 89.8613 53.7649L87.4827 53.8581C87.0119 58.0844 86.7765 60.4151 86.7765 60.8502C86.7765 61.6581 87.1226 62.0621 87.8151 62.0621C88.1682 62.0621 88.5109 62.0069 88.8433 61.8964C89.1756 61.7859 89.3834 61.7307 89.4664 61.7307C89.6118 61.7307 89.6845 61.8204 89.6845 62L89.4664 63.8127C89.4525 63.9163 89.4249 63.9923 89.3834 64.0406C89.3487 64.089 89.1791 64.1477 88.8744 64.2167C88.5767 64.2858 88.0643 64.3203 87.3373 64.3203C86.271 64.3203 85.4817 64.0752 84.9693 63.5849C84.4569 63.0877 84.2007 62.3487 84.2007 61.3682C84.2007 60.3875 84.4743 57.8945 85.0212 53.8892L84.0034 53.9306C83.8303 53.9237 83.7437 53.8374 83.7437 53.6717L84.0242 52.0039C84.0449 51.8451 84.1349 51.7622 84.2942 51.7553L85.2809 51.7242ZM94.1713 50.5537C93.7419 50.5537 93.3996 50.419 93.143 50.1497C92.8871 49.8804 92.7588 49.5351 92.7588 49.1139C92.7588 48.6857 92.9283 48.3059 93.2679 47.9744C93.6136 47.636 94.0018 47.4668 94.4312 47.4668C94.8599 47.4668 95.2062 47.6015 95.4694 47.8708C95.7393 48.1401 95.8742 48.4889 95.8742 48.917C95.8742 49.3383 95.6981 49.7181 95.3451 50.0565C94.9915 50.3879 94.6007 50.5537 94.1713 50.5537ZM95.3239 51.9521L93.9739 63.8956C93.9599 63.9923 93.936 64.0613 93.9014 64.1028C93.8668 64.1442 93.801 64.1684 93.704 64.1753L91.6162 64.2478C91.4639 64.234 91.3875 64.1684 91.3875 64.051L92.7588 52.0039C92.7867 51.852 92.8731 51.7691 93.0187 51.7553L95.0434 51.6828C95.2308 51.6966 95.3239 51.7864 95.3239 51.9521ZM97.7334 62.2693C97.5746 61.855 97.4636 61.4475 97.4011 61.047C97.3459 60.6396 97.318 60.0836 97.318 59.3793C97.318 58.6748 97.3944 57.8048 97.5466 56.7689C98.0525 53.316 99.6238 51.5896 102.262 51.5896C103.28 51.5896 104.059 51.9383 104.599 52.6358C105.139 53.3333 105.409 54.2379 105.409 55.3497C105.409 56.4616 105.34 57.5423 105.201 58.592C105.18 58.7785 105.073 58.8751 104.879 58.8821L99.7488 59.0582C99.7415 59.1617 99.7382 59.2999 99.7382 59.4725C99.7382 60.2529 99.8731 60.8709 100.143 61.3266C100.42 61.7825 100.836 62.0104 101.389 62.0104C101.944 62.0104 102.456 61.9309 102.927 61.7721C103.405 61.6064 103.685 61.5235 103.768 61.5235C103.851 61.5235 103.924 61.5511 103.986 61.6064C104.048 61.6616 104.079 61.7375 104.079 61.8343L103.872 63.6574C103.865 63.7609 103.844 63.83 103.809 63.8646C103.782 63.8921 103.723 63.9232 103.633 63.9578C102.795 64.1995 101.988 64.3203 101.213 64.3203C100.437 64.3203 99.8352 64.2271 99.4058 64.0406C98.9764 63.8542 98.6301 63.616 98.3669 63.3259C98.111 63.029 97.8996 62.6768 97.7334 62.2693ZM99.9981 56.4581L99.9043 57.1211L102.615 56.9864C102.733 56.9795 102.809 56.9588 102.844 56.9242C102.947 56.8207 102.999 56.5375 102.999 56.0749C102.999 55.6052 102.982 55.2772 102.947 55.0908C102.919 54.8974 102.868 54.7006 102.792 54.5004C102.632 54.0584 102.359 53.8374 101.971 53.8374C101.59 53.8374 101.289 53.903 101.068 54.0342C100.576 54.3381 100.219 55.146 99.9981 56.4581ZM114.393 54.3243L113.281 54.2103C112.381 54.2103 111.626 54.3898 111.018 54.749L109.989 63.8853C109.961 64.0579 109.875 64.1512 109.729 64.165L107.632 64.2478C107.479 64.234 107.403 64.1684 107.403 64.051L108.774 52.0039C108.801 51.852 108.888 51.7691 109.033 51.7553L111.059 51.6828C111.246 51.6897 111.339 51.7795 111.339 51.9521L111.215 53.0191C111.658 52.5702 112.087 52.2215 112.502 51.9729C112.918 51.7174 113.333 51.5896 113.749 51.5896C114.172 51.5896 114.493 51.6068 114.715 51.6414C114.86 51.669 114.933 51.7657 114.933 51.9314C114.933 52.4079 114.854 53.1157 114.694 54.0549C114.659 54.2345 114.559 54.3243 114.393 54.3243ZM121.081 63.9889L121.164 63.1913C120.327 63.944 119.378 64.3203 118.319 64.3203C117.522 64.3203 116.934 64.0303 116.553 63.4502C116.179 62.8701 115.992 62.145 115.992 61.2749C115.992 61.1299 116.006 60.9331 116.034 60.6844L117.02 52.0143C117.041 51.8486 117.127 51.7622 117.28 51.7553L119.378 51.6725C119.524 51.6863 119.596 51.7588 119.596 51.89L118.662 60.0629C118.64 60.2425 118.63 60.4082 118.63 60.5601C118.63 61.1402 118.741 61.5269 118.963 61.7203C119.191 61.9137 119.53 62.0104 119.98 62.0104C120.438 62.0104 120.888 61.924 121.33 61.7514L122.432 52.0143C122.452 51.8486 122.539 51.7622 122.691 51.7553L124.789 51.6828C124.934 51.6966 125.008 51.7691 125.008 51.9003L123.657 63.8853C123.636 64.051 123.543 64.1408 123.377 64.1546L121.352 64.2478C121.172 64.2409 121.081 64.1546 121.081 63.9889ZM130.689 51.9521L130.574 52.9051C131.571 52.0281 132.527 51.5896 133.441 51.5896C134.604 51.5896 135.338 52.2249 135.643 53.4956C135.726 53.8409 135.767 54.1689 135.767 54.4796C135.767 54.7835 135.756 55.0286 135.736 55.2151L134.739 63.8956C134.712 64.0683 134.624 64.1615 134.48 64.1753L132.381 64.2478C132.229 64.234 132.153 64.1684 132.153 64.051L133.098 55.8469C133.119 55.6674 133.129 55.5051 133.129 55.3601C133.129 54.7939 132.994 54.4106 132.724 54.2103C132.461 54.0031 132.125 53.8995 131.716 53.8995C131.308 53.8995 130.882 53.9858 130.439 54.1585L129.328 63.8956C129.3 64.0683 129.214 64.1615 129.068 64.1753L126.97 64.2478C126.818 64.234 126.742 64.1684 126.742 64.051L128.112 52.0039C128.14 51.852 128.227 51.7691 128.372 51.7553L130.408 51.6828C130.595 51.6897 130.689 51.7795 130.689 51.9521ZM143.193 64.5793L143.463 62.3522C143.117 62.9875 142.746 63.4744 142.352 63.8127C141.964 64.1512 141.521 64.3203 141.022 64.3203C140.531 64.3203 140.119 64.2409 139.787 64.0821C139.454 63.9163 139.181 63.7023 138.966 63.4399C138.758 63.1705 138.589 62.8494 138.457 62.4765C138.215 61.8135 138.094 60.9089 138.094 59.7625C138.094 58.6093 138.17 57.6321 138.322 56.831C138.481 56.03 138.62 55.4223 138.738 55.0079C138.855 54.5867 139.011 54.155 139.205 53.7131C139.406 53.2711 139.631 52.9017 139.88 52.6047C140.448 51.928 141.164 51.5896 142.03 51.5896C142.667 51.5896 143.155 51.7415 143.494 52.0453C143.834 52.3492 144.121 52.8015 144.356 53.4023L144.46 52.0143C144.474 51.8486 144.564 51.7622 144.73 51.7553L146.828 51.6828C146.974 51.7035 147.046 51.776 147.046 51.9003L145.634 64.4653C145.433 66.323 144.855 67.6455 143.899 68.4327C143.145 69.0611 142.13 69.3754 140.856 69.3754C140.046 69.3754 139.226 69.2821 138.395 69.0957C138.277 69.075 138.197 69.0439 138.156 69.0024C138.114 68.9679 138.094 68.8988 138.094 68.7953L138.302 66.9204C138.322 66.7339 138.398 66.6407 138.53 66.6407C138.62 66.6407 138.873 66.7097 139.288 66.8479C139.703 66.9859 140.167 67.055 140.68 67.055C141.192 67.055 141.591 67.0067 141.874 66.91C142.165 66.8202 142.397 66.6648 142.57 66.4439C142.875 66.0709 143.082 65.4494 143.193 64.5793ZM140.711 59.4622C140.711 61.1126 141.154 61.9378 142.041 61.9378C142.428 61.9378 142.743 61.7617 142.986 61.4095C143.228 61.0505 143.436 60.3357 143.609 59.2653C143.789 58.1949 143.878 57.4146 143.878 56.9242C143.878 56.4339 143.875 56.1232 143.868 55.992C143.861 55.8608 143.847 55.6881 143.827 55.474C143.806 55.2531 143.768 55.0701 143.712 54.925C143.657 54.7731 143.585 54.6212 143.494 54.4693C143.314 54.1723 143.024 54.0238 142.622 54.0238C142.22 54.0238 141.902 54.2034 141.666 54.5625C141.431 54.9147 141.248 55.3877 141.116 55.9817C140.846 57.2523 140.711 58.4124 140.711 59.4622ZM154.399 54.0964L153.226 54.0446C152.894 54.0446 152.631 54.1206 152.437 54.2724C152.25 54.4244 152.156 54.6453 152.156 54.9354C152.156 55.2185 152.208 55.5328 152.312 55.878C152.45 56.3407 152.689 56.8794 153.029 57.494C153.375 58.1086 153.614 58.5436 153.745 58.7992C154.147 59.5934 154.348 60.3495 154.348 61.0677C154.348 62.1105 154.04 62.915 153.424 63.4812C152.814 64.0406 151.886 64.3203 150.64 64.3203C150.024 64.3203 149.532 64.2858 149.165 64.2167C148.798 64.1546 148.594 64.1063 148.552 64.0717C148.517 64.0303 148.5 63.9681 148.5 63.8853L148.771 61.9689C148.784 61.7963 148.843 61.71 148.947 61.71C149.058 61.71 149.265 61.748 149.57 61.8239C149.875 61.8998 150.141 61.9378 150.37 61.9378C151.215 61.9378 151.637 61.6029 151.637 60.9331C151.637 60.4566 151.533 60.0112 151.325 59.5968C151.124 59.1825 150.903 58.7543 150.66 58.3123C150.425 57.8703 150.242 57.5182 150.11 57.2557C149.978 56.9864 149.84 56.617 149.695 56.1474C149.556 55.6778 149.487 55.2358 149.487 54.8215C149.487 53.8546 149.774 53.0743 150.349 52.4804C150.931 51.8865 151.775 51.5896 152.883 51.5896C153.596 51.5896 154.154 51.6241 154.556 51.6932C154.728 51.7208 154.815 51.8106 154.815 51.9624L154.587 53.8063C154.587 53.9997 154.524 54.0964 154.399 54.0964ZM57.1556 83.6392L53.9256 83.7635L53.4375 88.0104L57.4152 87.8758C57.5953 87.8831 57.6853 87.9726 57.6853 88.1449L57.4152 90.2896C57.4014 90.4341 57.3114 90.5243 57.1452 90.5588L50.7578 90.7656C50.6055 90.7656 50.5294 90.7006 50.5294 90.5694L52.3261 74.8965C52.3538 74.7514 52.4439 74.6721 52.5961 74.6582L58.2877 74.4615C58.4608 74.4822 58.5473 74.5754 58.5473 74.7411L58.2877 76.8854C58.2669 77.058 58.1769 77.1512 58.0177 77.1651L54.6733 77.2583L54.2267 81.1117L57.4257 80.9977C57.6057 81.0046 57.6957 81.0944 57.6957 81.2671L57.4257 83.3802C57.398 83.5391 57.308 83.6254 57.1556 83.6392ZM62.681 77.0718C62.2517 77.0718 61.9089 76.9371 61.6527 76.6678C61.3966 76.3985 61.2685 76.0532 61.2685 75.632C61.2685 75.2038 61.4381 74.824 61.7774 74.4925C62.1236 74.1541 62.5113 73.9849 62.9406 73.9849C63.3699 73.9849 63.7161 74.1196 63.9792 74.3889C64.2493 74.6582 64.3843 75.007 64.3843 75.4351C64.3843 75.8564 64.2077 76.2362 63.8546 76.5746C63.5015 76.906 63.1102 77.0718 62.681 77.0718ZM63.8338 78.4702L62.4836 90.4136C62.4698 90.5104 62.4455 90.5793 62.411 90.6211C62.3763 90.6622 62.3105 90.6867 62.2136 90.6933L60.126 90.7656C59.9737 90.7523 59.8975 90.6867 59.8975 90.5694L61.2685 78.5221C61.2962 78.3701 61.3827 78.2872 61.5281 78.2734L63.5534 78.2009C63.7404 78.2147 63.8338 78.3045 63.8338 78.4702ZM69.5149 78.4702L69.4007 79.4232C70.3978 78.5462 71.3533 78.1077 72.2672 78.1077C73.4305 78.1077 74.1644 78.743 74.4691 80.0137C74.5522 80.359 74.5937 80.687 74.5937 80.9977C74.5937 81.3016 74.5833 81.5467 74.5625 81.7332L73.5655 90.4136C73.5378 90.5866 73.4512 90.6794 73.3058 90.6933L71.2078 90.7656C71.0556 90.7523 70.9794 90.6867 70.9794 90.5694L71.9245 82.3651C71.9453 82.1855 71.9556 82.0232 71.9556 81.8782C71.9556 81.312 71.8206 80.9287 71.5506 80.7284C71.2875 80.5213 70.9517 80.4176 70.5431 80.4176C70.1346 80.4176 69.7088 80.504 69.2656 80.6767L68.1544 90.4136C68.1267 90.5866 68.0401 90.6794 67.8948 90.6933L65.7968 90.7656C65.6444 90.7523 65.5683 90.6867 65.5683 90.5694L66.9392 78.5221C66.9669 78.3701 67.0534 78.2872 67.1989 78.2734L69.2345 78.2009C69.4214 78.2078 69.5149 78.2976 69.5149 78.4702ZM81.1576 73.4774L80.5033 79.2886C81.4381 78.5013 82.3901 78.1077 83.3595 78.1077C84.5227 78.1077 85.2566 78.743 85.5613 80.0137C85.6444 80.359 85.6859 80.687 85.6859 80.9977C85.6859 81.3016 85.6756 81.5467 85.6548 81.7332L84.6577 90.4136C84.63 90.5866 84.5434 90.6794 84.3981 90.6933L82.3001 90.7656C82.1478 90.7523 82.0716 90.6867 82.0716 90.5694L83.0168 82.3651C83.0375 82.1855 83.0479 82.0232 83.0479 81.8782C83.0479 81.312 82.9129 80.9287 82.6428 80.7284C82.3797 80.5213 82.0404 80.4176 81.625 80.4176C81.2165 80.4176 80.7907 80.504 80.3475 80.6767L79.2466 90.4136C79.2189 90.5866 79.1324 90.6794 78.9869 90.6933L76.889 90.7656C76.7366 90.7523 76.6605 90.6867 76.6605 90.5694L78.5923 73.5499C78.6061 73.4532 78.6269 73.3842 78.6546 73.3427C78.6892 73.3013 78.755 73.2771 78.8519 73.2702L80.8876 73.1977C81.0677 73.2184 81.1576 73.3116 81.1576 73.4774ZM88.4278 88.7873C88.2686 88.373 88.1578 87.9659 88.0955 87.5649C88.0401 87.1578 88.0124 86.6016 88.0124 85.8975C88.0124 85.1928 88.0886 84.323 88.2409 83.287C88.7463 79.8341 90.318 78.1077 92.9562 78.1077C93.9739 78.1077 94.7529 78.4564 95.2933 79.1539C95.833 79.8514 96.1029 80.756 96.1029 81.8678C96.1029 82.9797 96.0338 84.0604 95.8955 85.1099C95.8742 85.2962 95.7672 85.393 95.5731 85.4003L90.443 85.576C90.4356 85.6801 90.4323 85.818 90.4323 85.9903C90.4323 86.7706 90.5673 87.3892 90.8371 87.8446C91.1143 88.3007 91.5297 88.5288 92.0834 88.5288C92.6378 88.5288 93.1503 88.4492 93.6209 88.2901C94.0988 88.1244 94.3787 88.0415 94.4624 88.0415C94.5448 88.0415 94.618 88.0694 94.6804 88.1244C94.7423 88.1794 94.7735 88.2557 94.7735 88.3524L94.5661 90.1756C94.5588 90.279 94.5382 90.3479 94.5036 90.3824C94.4757 90.4103 94.4172 90.4414 94.3268 90.4759C93.4893 90.7179 92.6823 90.8385 91.9073 90.8385C91.1316 90.8385 90.5294 90.745 90.1 90.5588C89.6707 90.3725 89.3245 90.1338 89.0614 89.8441C88.8052 89.5471 88.594 89.1951 88.4278 88.7873ZM90.6922 82.9762L90.5985 83.6392L93.3092 83.5045C93.4268 83.4976 93.5032 83.4769 93.5378 83.4424C93.6415 83.3388 93.6934 83.0557 93.6934 82.593C93.6934 82.1233 93.6761 81.7953 93.6415 81.6089C93.6136 81.4155 93.5617 81.2187 93.486 81.0185C93.3264 80.5765 93.0532 80.3555 92.6651 80.3555C92.2842 80.3555 91.9831 80.4211 91.7617 80.5523C91.2698 80.8562 90.9136 81.6641 90.6922 82.9762ZM100.881 77.0718C100.451 77.0718 100.108 76.9371 99.8525 76.6678C99.5959 76.3985 99.4683 76.0532 99.4683 75.632C99.4683 75.2038 99.6378 74.824 99.9768 74.4925C100.323 74.1541 100.711 73.9849 101.14 73.9849C101.569 73.9849 101.916 74.1196 102.179 74.3889C102.449 74.6582 102.584 75.007 102.584 75.4351C102.584 75.8564 102.408 76.2362 102.054 76.5746C101.701 76.906 101.31 77.0718 100.881 77.0718ZM102.033 78.4702L100.683 90.4136C100.669 90.5104 100.645 90.5793 100.611 90.6211C100.576 90.6622 100.51 90.6867 100.414 90.6933L98.3257 90.7656C98.1735 90.7523 98.097 90.6867 98.097 90.5694L99.4683 78.5221C99.4956 78.3701 99.5826 78.2872 99.7275 78.2734L101.753 78.2009C101.94 78.2147 102.033 78.3045 102.033 78.4702ZM105.409 78.2424C105.568 76.7231 105.672 75.9393 105.72 75.8909C105.769 75.8357 105.841 75.8046 105.939 75.7977L107.923 75.7252C108.109 75.739 108.203 75.8253 108.203 75.9841C108.071 76.7507 107.961 77.4861 107.87 78.1906L110.29 78.1077C110.457 78.1146 110.54 78.2044 110.54 78.377L110.249 80.024C110.221 80.1898 110.135 80.2761 109.989 80.283L107.611 80.3762C107.14 84.6028 106.904 86.9331 106.904 87.3686C106.904 88.1761 107.251 88.5805 107.943 88.5805C108.296 88.5805 108.639 88.5248 108.972 88.4148C109.304 88.3041 109.511 88.249 109.594 88.249C109.74 88.249 109.812 88.3385 109.812 88.5182L109.594 90.3307C109.58 90.4341 109.553 90.5104 109.511 90.5588C109.477 90.6071 109.307 90.6655 109.002 90.7351C108.705 90.804 108.193 90.8385 107.465 90.8385C106.399 90.8385 105.609 90.5932 105.098 90.1026C104.585 89.6054 104.329 88.8669 104.329 87.8864C104.329 86.9059 104.602 84.4125 105.15 80.4073L104.131 80.4487C103.958 80.4418 103.872 80.3555 103.872 80.1898L104.152 78.5221C104.173 78.3632 104.263 78.2803 104.422 78.2734L105.409 78.2424Z" fill="#252525"/>
<path d="M254.835 23.5771C255.611 23.6701 256 24.0878 256 24.8311L254.835 34.4512C254.741 35.2255 254.338 35.6431 253.623 35.7051L238.621 36.124L236.617 53.4102L250.969 52.8994C251.776 52.9304 252.179 53.3331 252.179 54.1074L250.969 63.5869C250.844 64.2995 250.44 64.6871 249.757 64.749L235.267 65.3066L233.077 84.3594L242.997 84.0234L243 84L258.5 83.5V79L269 89L258.5 100V95.5L249.828 95.7627C249.79 95.7726 249.75 95.7826 249.71 95.791L221.056 96.7207C220.372 96.7207 220.03 96.4262 220.03 95.8379L228.091 25.5283C228.215 24.8779 228.619 24.5219 229.303 24.46L254.835 23.5771ZM202.995 23.3906C208.213 23.3906 212.158 24.9551 214.83 28.084C217.533 31.213 218.883 35.0703 218.883 39.6553C218.883 44.2093 218.588 49.7394 217.998 56.2451C217.409 62.7199 216.677 68.1416 215.808 72.5098C214.938 76.8469 214.193 80.0225 213.571 82.0361C212.982 84.0188 212.158 86.0324 211.103 88.0771C210.046 90.1217 208.819 91.7637 207.422 93.0029C204.285 95.8221 200.091 97.2314 194.842 97.2314C189.624 97.2314 185.679 95.6827 183.007 92.585C180.336 89.487 179 85.6138 179 80.9668C179 69.1328 180.196 57.4381 182.587 45.8828C184.482 36.8057 187.107 30.7331 190.462 27.666C193.631 24.8162 197.808 23.3907 202.995 23.3906ZM180.683 23.3906C181.428 23.4525 181.801 23.8711 181.801 24.6455L158.645 84.2197L173.787 83.709C174.532 83.771 174.905 84.1586 174.905 84.8711L173.787 94.5361C173.663 95.2486 173.259 95.6364 172.575 95.6982L142.803 96.7207C142.12 96.7207 141.777 96.4262 141.777 95.8379L165.12 35.8916L151.143 36.3564C150.367 36.3253 149.979 35.9843 149.979 35.334L151.143 25.5283C151.236 24.878 151.64 24.522 152.354 24.46L180.683 23.3906ZM201.552 34.3574C197.948 34.3574 195.509 37.998 194.235 45.2783C193.49 49.5535 192.744 55.3621 191.999 62.7041C191.254 70.0151 190.881 75.1736 190.881 78.1787C190.881 81.1837 191.363 83.2908 192.325 84.499C193.319 85.6762 194.562 86.2646 196.053 86.2646C199.998 86.2646 202.529 82.6399 203.647 75.3906C204.393 70.5887 205.138 64.6095 205.884 57.4531C206.629 50.2969 207.002 45.2626 207.002 42.3506C207.002 39.4384 206.521 37.3781 205.558 36.1699C204.625 34.962 203.291 34.3575 201.552 34.3574Z" fill="white" fill-opacity="0.47"/>
</svg>
